<svg width="256.09999999999997" height="53.42033982019723" viewBox="0 0 369.89473684210526 77.15697985086955" class="looka-1j8o68f"><defs id="SvgjsDefs1125"></defs><g id="SvgjsG1126" featurekey="JiLV9t-0" transform="matrix(1.1111440355479671,0,0,1.1111440355479671,-9.526284946429625,-16.956915509431248)" fill="#192166"><path xmlns="http://www.w3.org/2000/svg" d="M91.4,48.7c-1.9-7.5-3.9-15-5.8-22.5c-0.1-0.4-0.3-0.6-0.7-0.8c-9.4-3.3-18.7-6.6-28-9.9c-0.6-0.2-1.2-0.3-1.8-0.2  c-6.4,0.6-12.8,1.3-19.1,1.9c-0.5,0.1-1.1,0.1-1.6,0.3c-4,1.9-8.1,3.8-12.2,5.6c-0.3,0.1-0.6,0.3-0.8,0.6  c-3.4,3.4-6.7,6.8-10.1,10.2c-0.2,0.2-0.4,0.5-0.4,0.8c-0.7,4.1-1.5,8.1-2.3,12.2c-0.1,0.5,0.1,0.8,0.3,1.1  c3.6,4.6,7.2,9.1,10.8,13.7c0.3,0.4,0.7,0.6,1.2,0.6c4.6,0,9.3,0,13.9,0c0.5,0,0.9,0.1,1.3,0.5c4.4,3.8,8.8,7.6,13.2,11.4  c0.4,0.3,0.6,0.4,1,0c1-0.8,2.1-1.6,3.4-2.6c0,0.4,0,0.7,0,1c0,0.6,0,1.1,0.6,1.6c4.3,3.3,8.6,6.7,12.9,10.1  c0.3,0.3,0.6,0.4,1.1,0.4c2.3,0,4.5,0,6.8,0c0.8,0,0.8,0,0.4-0.7c-2-3.7-3.9-7.5-6-11.2c-0.3-0.5-0.2-0.7,0.3-1.1  c4.5-3.2,9-6.4,13.6-9.5c0.3-0.2,0.6-0.5,0.8-0.9c2.4-3.9,4.7-7.7,7.1-11.6C91.5,49.4,91.5,49.1,91.4,48.7z M25.6,25.9  c3.3-1.5,6.6-3.1,9.9-4.7c0.9-0.5,1.9-0.6,2.8-0.7c5.8-0.6,11.6-1.1,17.4-1.7c0.3,0,0.7,0,1,0.1c8.6,3,17.1,6,25.7,9  c0.4,0.1,0.6,0.3,0.7,0.7c0.3,1.3,0.7,2.7,1.1,4c0.2,0.5,0,0.6-0.5,0.6c-5.3,0-10.6,0-15.9,0c-0.5,0-0.8,0.1-1.1,0.6  c-0.8,1.5-1.7,3-2.5,4.4c-0.2,0.3-0.4,0.5-0.8,0.5c-5.1,0-10.2,0-15.4,0c-0.3,0-0.6-0.1-0.8-0.4c-0.7-1.2-1.3-2.3-2-3.5  c-0.2-0.3-0.2-0.6,0-0.9c0.8-1,1.5-2.1,2.3-3.2c0.2-0.3,0.4-0.4,0.8-0.4c3.3,0,6.5,0,9.8,0c0.4,0,0.7,0.2,1,0.4  c1.2,0.8,2.7,0.7,3.7-0.3c0.9-1,1.1-2.5,0.3-3.7c-0.8-1.1-2.4-1.7-3.6-0.9c-1.1,0.8-2.2,0.7-3.3,0.7c-3.2,0-6.5,0-9.7,0  c-0.5,0-0.7,0.1-1,0.5c-0.7,1.1-1.5,2.2-2.2,3.3c-0.3,0.4-0.4,0.4-0.6,0c-0.3-1-1-1.2-2-1.2c-5.8,0.1-11.6,0-17.4,0  c-0.3,0-0.5,0-0.8,0C23.3,28,24.1,26.6,25.6,25.9z M80.3,59.4c-5.3,3.7-10.5,7.4-15.8,11.1c-0.4,0.3-0.5,0.5-0.2,1  c1.5,2.8,2.9,5.6,4.4,8.4c0.1,0.2,0.3,0.5,0.2,0.8c-3.7-2.9-7.3-5.7-11-8.5c-0.3-0.3-0.3-0.5-0.3-0.9c0-2.5,0-4.9,0-7.4  c-0.3,0-0.5,0.2-0.7,0.4c-2.1,1.6-4.3,3.3-6.4,4.9c-0.5,0.4-0.8,0.3-1.2-0.1c-3.9-3.4-7.8-6.8-11.7-10.2c-0.4-0.3-0.8-0.5-1.3-0.5  c-4.5,0-9,0-13.5,0c-0.8,0-1.1-0.6-1.5-1.1c-0.2-0.2,0.1-0.4,0.2-0.6c0.7-1,1.4-1.9,2-2.9c0.6-0.8,1.7-1,2.5-0.4  c1.9,1.4,4.3,0.5,4.6-1.8c0.2-1.2-0.4-2.3-1.4-2.9c-1-0.6-2.4-0.5-3.2,0.3c-0.3,0.2-0.5,0.3-0.9,0.3c-0.9,0-1.8,0-2.7,0  c-0.4,0-0.7,0.1-0.9,0.5c-0.9,1.3-1.8,2.5-2.7,3.8c-0.3,0.4-0.4,0.4-0.7,0c-1.7-2.3-3.5-4.6-5.2-6.8c-0.2-0.3-0.3-0.5-0.2-0.9  c0.1-0.7,0.3-1.3,0.3-2c0.1-0.5,0.3-0.7,0.8-0.7c5.3,0,10.6,0,15.9,0c1,0,2,0,3,0c0.5,0,0.7,0.1,1,0.6c1.6,2.9,3.3,5.8,5,8.7  c0.3,0.5,0.5,0.8,1.1,0.7c1.5-0.3,2.4,0.3,3,1.7c0.8,1.8,2,3.5,2.9,5.2c0.2,0.4,0.4,0.5,0.8,0.5c1.1,0,2.2,0,3.3,0  c0.9,0,1.7,0,2.6,0.6c1,0.7,2.7,0.4,3.3-0.5c1.1-1.4,1-3,0-4.1c-1-1-2.7-1.3-3.7-0.4c-0.5,0.4-1,0.4-1.6,0.5c-1.7,0.3-2.8-0.3-3.3-2  c-0.2-0.4-0.4-0.8-0.7-1.4c0.3,0,0.5,0,0.7,0c4.3,0,8.5,0,12.8,0c0.5,0,0.7,0.1,1,0.6c0.6,1.2,1.3,2.3,2,3.4c0.2,0.4,0.5,0.5,1,0.5  c5.6,0,11.3,0,16.9,0c0.3,0,0.5,0,0.9,0C81.3,58.4,80.9,59,80.3,59.4z M86.9,48.9c-0.9,1.4-1.7,2.8-2.6,4.2  c-0.2,0.3-0.4,0.4-0.8,0.4c-5.8,0-11.7,0-17.5,0c-0.4,0-0.6-0.2-0.8-0.5c-0.7-1.2-1.4-2.3-2-3.5c-0.2-0.4-0.5-0.6-1-0.6  c-6.7,0-13.3,0-20,0c-0.5,0-0.9-0.1-1.1-0.6c-1.6-2.9-3.3-5.7-5-8.6c-0.3-0.5-0.5-0.6-1.1-0.6c-6.8,0-13.6,0-20.3,0  c-0.7,0-0.7-0.1-0.7-0.8c0.2-2.2,1.9-3.3,3.2-4.8c0.2-0.2,0.5-0.2,0.7-0.2c3.3,0,6.7,0,10,0c3.3,0,6.7,0,10,0c0.5,0,0.7,0.1,1,0.6  c1.7,2.9,3.4,5.9,5.1,8.8c0.2,0.4,0.5,0.6,1,0.6c6.6,0,13.2,0,19.8,0c0.5,0,0.7-0.2,0.9-0.6c0.8-1.5,1.7-3,2.5-4.4  c0.2-0.4,0.4-0.5,0.8-0.5c4.9,0,9.9,0,14.8,0c0.5,0,0.7,0.2,0.8,0.6c0.4,1.8,0.9,3.6,1.4,5.4c0.2,0.5,0,0.7-0.5,0.6  c-3.2,0-6.4,0-9.6,0c-0.4,0-0.6-0.1-0.9-0.3c-1.3-1-2.9-0.8-3.9,0.3c-1,1.1-1,2.9,0.1,3.9c1.1,1.1,2.7,1.2,4,0.1  c0.2-0.2,0.4-0.2,0.7-0.2c3.6,0,7.1,0,10.7,0C87.2,48.3,87.2,48.5,86.9,48.9z"></path></g><g id="SvgjsG1127" featurekey="Yxc9Rz-0" transform="matrix(1.2610872897391308,0,0,1.2610872897391308,110.70688179112916,10.376865543967911)" fill="#252a34"><path d="M1.0254 6.045 l0 13.955 l16.748 0 l0 -2.793 l-13.955 0 l0 -11.162 l-2.793 0 z M22.617228125 13.0176 l0 -4.1895 l8.3789 0 q1.15234375 0 1.97265625 0.8203125 q0.810546875 0.8203125 0.810546875 1.97265625 l0 1.3965 l-11.162 0 z M19.824228125 6.045 l0 13.955 l2.793 0 l0 -4.1895 l11.162 0 l0 4.1895 l2.793 0 l0 -8.3789 q0 -2.3046875 -1.630859375 -3.9453125 q-1.640625 -1.630859375 -3.9453125 -1.630859375 l-11.172 0 z M38.62305625 6.055 l0 13.955 l6.7285 0 l-0.44922 3.5645 l1.3965 0 l1.3379 -3.5645 l7.7344 0 l0 -4.1797 l-2.793 0 l0 1.3965 l-11.162 0 l0 -8.3789 l11.162 0 l0 1.3965 l2.793 0 l0 -4.1895 l-16.748 0 z M71.376484375 14.414100000000001 q0 1.15234375 -0.810546875 1.97265625 q-0.8203125 0.8203125 -1.97265625 0.8203125 l-8.3789 0 l0 -5.5859 q0 -1.15234375 0.8203125 -1.97265625 t1.9727 -0.82031 l8.3691 0 l0 5.5859 z M57.421884375 20 l11.172 0 q2.3046875 0 3.9453125 -1.640625 q1.630859375 -1.630859375 1.630859375 -3.9453125 l0 -8.3691 l-11.162 0 q-2.314453125 0 -3.9453125 1.630859375 q-1.640625 1.640625 -1.640625 3.9453125 l0 8.3789 z M76.2207125 14.414100000000001 l13.955 0 q0 1.15234375 -0.810546875 1.97265625 q-0.8203125 0.8203125 -1.97265625 0.8203125 l-11.172 0 l0 2.793 l11.172 0 q2.3046875 0 3.9453125 -1.640625 q1.630859375 -1.630859375 1.630859375 -3.9453125 l0 -2.793 l-13.955 0 q0 -1.15234375 0.8203125 -1.97265625 t1.9727 -0.82031 l11.162 0 l0 -2.7832 l-11.162 0 q-2.314453125 0 -3.9453125 1.630859375 q-1.640625 1.640625 -1.640625 3.9453125 l0 2.793 z M113.935078125 14.414100000000001 q0 1.15234375 -0.810546875 1.97265625 q-0.8203125 0.8203125 -1.97265625 0.8203125 l-8.3789 0 l0 -8.3789 l8.3789 0 q1.15234375 0 1.97265625 0.8203125 q0.810546875 0.8203125 0.810546875 1.97265625 l0 2.793 z M99.980478125 6.045 l0 13.955 l11.172 0 q2.3046875 0 3.9453125 -1.640625 q1.630859375 -1.630859375 1.630859375 -3.9453125 l0 -2.793 q0 -2.3046875 -1.630859375 -3.9453125 q-1.640625 -1.630859375 -3.9453125 -1.630859375 l-11.172 0 z M118.77930625 20 l2.793 0 l0 -13.955 l-2.793 0 l0 13.955 z M123.62305625 14.414100000000001 q0 2.314453125 1.640625 3.9453125 q1.630859375 1.640625 3.9453125 1.640625 l11.162 0 l0 -8.3789 l-9.7656 0 l0 2.793 l6.9727 0 l0 2.793 l-8.3691 0 q-1.15234375 0 -1.97265625 -0.8203125 t-0.82031 -1.9727 l0 -5.5859 l13.955 0 l0 -2.7832 l-16.748 0 l0 8.3691 z M142.421884375 20 l2.793 0 l0 -13.955 l-2.793 0 l0 13.955 z M147.265634375 6.045 l0 2.7832 l6.5137 0 l0 11.172 l2.793 0 l0 -11.172 l6.5137 0 l0 -2.7832 l-15.82 0 z M167.929728125 13.0176 l0 -4.1895 l8.3789 0 q1.15234375 0 1.97265625 0.8203125 q0.810546875 0.8203125 0.810546875 1.97265625 l0 1.3965 l-11.162 0 z M165.136728125 6.045 l0 13.955 l2.793 0 l0 -4.1895 l11.162 0 l0 4.1895 l2.793 0 l0 -8.3789 q0 -2.3046875 -1.630859375 -3.9453125 q-1.640625 -1.630859375 -3.9453125 -1.630859375 l-11.172 0 z M183.93555625 20 l2.793 0 l0 -13.955 l-2.793 0 l0 13.955 z M188.77930625 14.414100000000001 l13.955 0 q0 1.15234375 -0.810546875 1.97265625 q-0.8203125 0.8203125 -1.97265625 0.8203125 l-11.172 0 l0 2.793 l11.172 0 q2.3046875 0 3.9453125 -1.640625 q1.630859375 -1.630859375 1.630859375 -3.9453125 l0 -2.793 l-13.955 0 q0 -1.15234375 0.8203125 -1.97265625 t1.9727 -0.82031 l11.162 0 l0 -2.7832 l-11.162 0 q-2.314453125 0 -3.9453125 1.630859375 q-1.640625 1.640625 -1.640625 3.9453125 l0 2.793 z"></path></g><g id="SvgjsG1128" featurekey="zc75Em-0" transform="matrix(0.49679333451286045,0,0,0.49679333451286045,116.51314275959133,47.923404183905994)" fill="#192166"><path d="M8.58 7.76 l3 0 l0 7.24 c0 3.18 -2.28 5.1 -5.3 5.1 c-3.1 0 -5.3 -2.04 -5.3 -5.1 l0 -7.24 l3 0 l0 7.24 c0 1.44 0.86 2.32 2.3 2.32 c1.48 0 2.3 -0.86 2.3 -2.32 l0 -7.24 z M17.078500000000002 13.26 l0 6.74 l-3 0 l0 -12.24 l3 0 l3.82 6.76 l3.82 -6.76 l3 0 l0 12.24 l-3 0 l0 -6.74 l-2.32 3.98 l-3 0 z M35.215500000000006 7.76 l9.1 0 l0 2.78 l-6.1 0 l0 1.96 l4.9 0 l0 2.78 l-4.9 0 l0 1.94 l6.1 0 l0 2.78 l-9.1 0 l0 -12.24 z M55.51400000000001 17.22 l0 2.78 l-9.1 0 l0 -12.24 l3 0 l0 9.46 l6.1 0 z M63.03250000000001 17.32 c2.18 0 3.3 -1.4 3.3 -3.44 c0 -2.16 -1.2 -3.44 -3.3 -3.44 c-2.2 0 -3.3 1.4 -3.3 3.44 c0 2.12 1.22 3.44 3.3 3.44 z M63.03250000000001 20.1 c-3.76 0 -6.3 -2.56 -6.3 -6.22 c0 -3.78 2.66 -6.22 6.3 -6.22 c3.78 0 6.3 2.54 6.3 6.22 c0 3.8 -2.64 6.22 -6.3 6.22 z M76.38950000000001 7.76 l9.1 0 l0 2.78 l-6.1 0 l0 1.96 l4.9 0 l0 2.78 l-4.9 0 l0 1.94 l6.1 0 l0 2.78 l-9.1 0 l0 -12.24 z M95.388 7.76 l3 0 l0 12.24 l-3 0 l-4.8 -7.16 l0 7.16 l-3 0 l0 -12.24 l3 0 l4.8 7.16 l0 -7.16 z M100.36650000000002 7.76 l10.2 0 l0 2.78 l-3.6 0 l0 9.46 l-3 0 l0 -9.46 l-3.6 0 l0 -2.78 z M115.52500000000002 10.58 l0 2.92 l2.8 0 c0.92 0 1.46 -0.54 1.46 -1.46 s-0.54 -1.46 -1.46 -1.46 l-2.8 0 z M120.06500000000003 15.48 c0.56 0.76 1.12 1.52 1.7 2.26 c0.56 0.74 1.12 1.5 1.68 2.26 l-3.66 0 c-0.72 -0.96 -1.42 -1.92 -2.12 -2.88 c-0.7 -0.94 -1.42 -1.9 -2.14 -2.86 l0 5.74 l-3 0 l0 -12.24 l5.8 0 c2.28 0 4.22 1.74 4.22 4.04 c0 1.62 -1 3.04 -2.48 3.68 z M125.10350000000003 7.76 l9.1 0 l0 2.78 l-6.1 0 l0 1.96 l4.9 0 l0 2.78 l-4.9 0 l0 1.94 l6.1 0 l0 2.78 l-9.1 0 l0 -12.24 z M141.08050000000003 7.76 l3 0 l0 12.24 l-3 0 l0 -12.24 z M154.53900000000002 7.76 l3 0 l0 12.24 l-3 0 l-4.8 -7.16 l0 7.16 l-3 0 l0 -12.24 l3 0 l4.8 7.16 l0 -7.16 z M160.2375 7.76 l9.1 0 l0 2.78 l-6.1 0 l0 1.96 l4.9 0 l0 2.78 l-4.9 0 l0 4.72 l-3 0 l0 -12.24 z M176.89600000000004 17.32 c2.18 0 3.3 -1.4 3.3 -3.44 c0 -2.16 -1.2 -3.44 -3.3 -3.44 c-2.2 0 -3.3 1.4 -3.3 3.44 c0 2.12 1.22 3.44 3.3 3.44 z M176.89600000000004 20.1 c-3.76 0 -6.3 -2.56 -6.3 -6.22 c0 -3.78 2.66 -6.22 6.3 -6.22 c3.78 0 6.3 2.54 6.3 6.22 c0 3.8 -2.64 6.22 -6.3 6.22 z M188.45450000000002 10.58 l0 2.92 l2.8 0 c0.92 0 1.46 -0.54 1.46 -1.46 s-0.54 -1.46 -1.46 -1.46 l-2.8 0 z M192.99450000000004 15.48 c0.56 0.76 1.12 1.52 1.7 2.26 c0.56 0.74 1.12 1.5 1.68 2.26 l-3.66 0 c-0.72 -0.96 -1.42 -1.92 -2.12 -2.88 c-0.7 -0.94 -1.42 -1.9 -2.14 -2.86 l0 5.74 l-3 0 l0 -12.24 l5.8 0 c2.28 0 4.22 1.74 4.22 4.04 c0 1.62 -1 3.04 -2.48 3.68 z M201.03300000000002 13.26 l0 6.74 l-3 0 l0 -12.24 l3 0 l3.82 6.76 l3.82 -6.76 l3 0 l0 12.24 l-3 0 l0 -6.74 l-2.32 3.98 l-3 0 z M221.95150000000004 17.52 l-4.5 0 l-0.88 2.48 l-3.26 0 l4.9 -12.24 l3 0 l4.9 12.24 l-3.28 0 z M218.43150000000003 14.74 l2.54 0 l-1.26 -3.56 z M231.05000000000004 24.08 l0 -1.38 c0.46 0.16 1.04 0.28 1.54 0.28 c0.3 0 0.7 -0.06 0.7 -0.44 c0 -0.2 -0.1 -0.36 -0.32 -0.46 s-0.58 -0.2 -1.08 -0.26 l0.32 -1.72 c-3.36 -0.4 -5.34 -2.94 -5.34 -6.2 c0 -3.7 2.54 -6.24 6.16 -6.24 c1.24 0 2.48 0.1 3.68 0.44 l0 3.06 c-0.96 -0.46 -2.44 -0.6 -3.5 -0.6 c-2.44 0 -3.34 1.04 -3.34 3.32 c0 0.48 0.04 0.92 0.14 1.32 c0.3 1.62 1.8 2.04 3.22 2.04 c1.06 0 2.52 -0.14 3.48 -0.6 l0 3.06 c-1.02 0.32 -2.18 0.4 -3.24 0.44 l-0.12 0.7 c1 0.24 2.08 0.58 2.08 1.78 c0 0.64 -0.24 1.06 -0.78 1.42 c-0.24 0.14 -0.52 0.26 -0.82 0.34 c-0.3 0.06 -0.62 0.1 -0.96 0.1 c-0.66 0 -1.22 -0.08 -1.82 -0.4 z M246.52850000000004 17.52 l-4.5 0 l-0.88 2.48 l-3.26 0 l4.9 -12.24 l3 0 l4.9 12.24 l-3.28 0 z M243.00850000000003 14.74 l2.54 0 l-1.26 -3.56 z M245.96850000000003 4.18 l1.3 0 l0 0.3 c0 1.1 -0.58 1.92 -1.74 1.92 c-0.46 0 -0.92 -0.1 -1.34 -0.28 c-0.22 -0.06 -0.4 -0.12 -0.58 -0.18 s-0.34 -0.08 -0.48 -0.08 c-0.34 0 -0.52 0.18 -0.52 0.54 l-1.32 0 l0 -0.3 c0 -1.12 0.58 -1.92 1.76 -1.92 c0.24 0 0.48 0.02 0.7 0.08 s0.42 0.12 0.62 0.18 c0.2 0.08 0.38 0.14 0.56 0.2 s0.34 0.08 0.48 0.08 c0.38 0 0.56 -0.18 0.56 -0.54 z M258.187 17.32 c2.18 0 3.3 -1.4 3.3 -3.44 c0 -2.16 -1.2 -3.44 -3.3 -3.44 c-2.2 0 -3.3 1.4 -3.3 3.44 c0 2.12 1.22 3.44 3.3 3.44 z M258.187 20.1 c-3.76 0 -6.3 -2.56 -6.3 -6.22 c0 -3.78 2.66 -6.22 6.3 -6.22 c3.78 0 6.3 2.54 6.3 6.22 c0 3.8 -2.64 6.22 -6.3 6.22 z M270.1455 18.9 l-1.44 4.1 l-1.44 0 l1.06 -3.04 c-0.92 -0.04 -1.54 -0.8 -1.54 -1.7 c0 -1.02 0.72 -1.74 1.74 -1.74 c1.06 0 1.72 0.68 1.72 1.74 c0 0.2 -0.04 0.42 -0.1 0.64 z M277.8025 20 l0 -12.24 l5.8 0 c2.28 0 4.22 1.72 4.22 4.02 c0 2.32 -2 4.02 -4.22 4.02 l-2.8 0 l0 4.2 l-3 0 z M283.6025 10.54 l-2.8 0 l0 2.48 l2.8 0 c0.7 0 1.22 -0.54 1.22 -1.24 s-0.52 -1.24 -1.22 -1.24 z M292.721 10.58 l0 2.92 l2.8 0 c0.92 0 1.46 -0.54 1.46 -1.46 s-0.54 -1.46 -1.46 -1.46 l-2.8 0 z M297.261 15.48 c0.56 0.76 1.12 1.52 1.7 2.26 c0.56 0.74 1.12 1.5 1.68 2.26 l-3.66 0 c-0.72 -0.96 -1.42 -1.92 -2.12 -2.88 c-0.7 -0.94 -1.42 -1.9 -2.14 -2.86 l0 5.74 l-3 0 l0 -12.24 l5.8 0 c2.28 0 4.22 1.74 4.22 4.04 c0 1.62 -1 3.04 -2.48 3.68 z M302.2995 7.76 l9.1 0 l0 2.78 l-6.1 0 l0 1.96 l4.9 0 l0 2.78 l-4.9 0 l0 1.94 l6.1 0 l0 2.78 l-9.1 0 l0 -12.24 z M321.9580000000001 7.76 l3.28 0 l-4.9 12.24 l-3 0 l-4.9 -12.24 l3.26 0 l3.14 8.82 z M326.91650000000004 7.76 l9.1 0 l0 2.78 l-6.1 0 l0 1.96 l4.9 0 l0 2.78 l-4.9 0 l0 1.94 l6.1 0 l0 2.78 l-9.1 0 l0 -12.24 z M345.9150000000001 7.76 l3 0 l0 12.24 l-3 0 l-4.8 -7.16 l0 7.16 l-3 0 l0 -12.24 l3 0 l4.8 7.16 l0 -7.16 z M355.47350000000006 24.08 l0 -1.38 c0.46 0.16 1.04 0.28 1.54 0.28 c0.3 0 0.7 -0.06 0.7 -0.44 c0 -0.2 -0.1 -0.36 -0.32 -0.46 s-0.58 -0.2 -1.08 -0.26 l0.32 -1.72 c-3.36 -0.4 -5.34 -2.94 -5.34 -6.2 c0 -3.7 2.54 -6.24 6.16 -6.24 c1.24 0 2.48 0.1 3.68 0.44 l0 3.06 c-0.96 -0.46 -2.44 -0.6 -3.5 -0.6 c-2.44 0 -3.34 1.04 -3.34 3.32 c0 0.48 0.04 0.92 0.14 1.32 c0.3 1.62 1.8 2.04 3.22 2.04 c1.06 0 2.52 -0.14 3.48 -0.6 l0 3.06 c-1.02 0.32 -2.18 0.4 -3.24 0.44 l-0.12 0.7 c1 0.24 2.08 0.58 2.08 1.78 c0 0.64 -0.24 1.06 -0.78 1.42 c-0.24 0.14 -0.52 0.26 -0.82 0.34 c-0.3 0.06 -0.62 0.1 -0.96 0.1 c-0.66 0 -1.22 -0.08 -1.82 -0.4 z M370.9520000000001 17.52 l-4.5 0 l-0.88 2.48 l-3.26 0 l4.9 -12.24 l3 0 l4.9 12.24 l-3.28 0 z M367.4320000000001 14.74 l2.54 0 l-1.26 -3.56 z M370.3920000000001 4.18 l1.3 0 l0 0.3 c0 1.1 -0.58 1.92 -1.74 1.92 c-0.46 0 -0.92 -0.1 -1.34 -0.28 c-0.22 -0.06 -0.4 -0.12 -0.58 -0.18 s-0.34 -0.08 -0.48 -0.08 c-0.34 0 -0.52 0.18 -0.52 0.54 l-1.32 0 l0 -0.3 c0 -1.12 0.58 -1.92 1.76 -1.92 c0.24 0 0.48 0.02 0.7 0.08 s0.42 0.12 0.62 0.18 c0.2 0.08 0.38 0.14 0.56 0.2 s0.34 0.08 0.48 0.08 c0.38 0 0.56 -0.18 0.56 -0.54 z M382.61050000000006 17.32 c2.18 0 3.3 -1.4 3.3 -3.44 c0 -2.16 -1.2 -3.44 -3.3 -3.44 c-2.2 0 -3.3 1.4 -3.3 3.44 c0 2.12 1.22 3.44 3.3 3.44 z M382.61050000000006 20.1 c-3.76 0 -6.3 -2.56 -6.3 -6.22 c0 -3.78 2.66 -6.22 6.3 -6.22 c3.78 0 6.3 2.54 6.3 6.22 c0 3.8 -2.64 6.22 -6.3 6.22 z M395.96750000000003 7.76 l9.1 0 l0 2.78 l-6.1 0 l0 1.96 l4.9 0 l0 2.78 l-4.9 0 l0 1.94 l6.1 0 l0 2.78 l-9.1 0 l0 -12.24 z M421.58450000000005 16.58 l0 3.08 c-1.24 0.34 -2.48 0.48 -3.76 0.48 c-3.76 0 -6.28 -2.58 -6.28 -6.24 c0 -3.76 2.62 -6.24 6.26 -6.24 c1.26 0 2.58 0.1 3.78 0.48 l0 3.08 c-0.98 -0.48 -2.52 -0.66 -3.6 -0.66 c-2.44 0 -3.44 1 -3.44 3.32 c0 2.46 1.18 3.36 3.46 3.36 c1.02 0 2.68 -0.16 3.58 -0.66 z M431.16300000000007 7.76 l3 0 l0 7.24 c0 3.18 -2.28 5.1 -5.3 5.1 c-3.1 0 -5.3 -2.04 -5.3 -5.1 l0 -7.24 l3 0 l0 7.24 c0 1.44 0.86 2.32 2.3 2.32 c1.48 0 2.3 -0.86 2.3 -2.32 l0 -7.24 z M436.64150000000006 7.76 l3 0 l0 12.24 l-3 0 l0 -12.24 z M446.6000000000001 20 l-4.3 0 l0 -12.24 l4.3 0 c3.74 0 6.3 2.44 6.3 6.12 c0 3.78 -2.7 6.12 -6.3 6.12 z M445.30000000000007 10.54 l0 6.68 l1.3 0 c2.12 0 3.3 -1.34 3.3 -3.34 c0 -0.46 -0.06 -0.88 -0.18 -1.3 c-0.52 -1.46 -1.66 -2.04 -3.12 -2.04 l-1.3 0 z M462.7385000000001 17.52 l-4.5 0 l-0.88 2.48 l-3.26 0 l4.9 -12.24 l3 0 l4.9 12.24 l-3.28 0 z M459.21850000000006 14.74 l2.54 0 l-1.26 -3.56 z M472.81700000000006 20 l-4.3 0 l0 -12.24 l4.3 0 c3.74 0 6.3 2.44 6.3 6.12 c0 3.78 -2.7 6.12 -6.3 6.12 z M471.51700000000005 10.54 l0 6.68 l1.3 0 c2.12 0 3.3 -1.34 3.3 -3.34 c0 -0.46 -0.06 -0.88 -0.18 -1.3 c-0.52 -1.46 -1.66 -2.04 -3.12 -2.04 l-1.3 0 z M487.25550000000004 17.32 c2.18 0 3.3 -1.4 3.3 -3.44 c0 -2.16 -1.2 -3.44 -3.3 -3.44 c-2.2 0 -3.3 1.4 -3.3 3.44 c0 2.12 1.22 3.44 3.3 3.44 z M487.25550000000004 20.1 c-3.76 0 -6.3 -2.56 -6.3 -6.22 c0 -3.78 2.66 -6.22 6.3 -6.22 c3.78 0 6.3 2.54 6.3 6.22 c0 3.8 -2.64 6.22 -6.3 6.22 z M499.33400000000006 18.38 c0 1.02 -0.7 1.72 -1.72 1.72 s-1.74 -0.68 -1.74 -1.72 c0 -1.02 0.72 -1.74 1.74 -1.74 c1.06 0 1.72 0.68 1.72 1.74 z"></path></g></svg>
